<svg width="578" height="128" viewBox="0 0 578 128" fill="none" xmlns="http://www.w3.org/2000/svg">
<path d="M79.3166 124.998V0.398438H100.677V124.998H79.3166ZM0.640625 124.998V0.398438H22.0006V124.998H0.640625ZM18.7966 70.1744V52.7304H83.4106V70.1744H18.7966Z" fill="white"/>
<path d="M156.587 127.134C147.687 127.134 139.855 125.236 133.091 121.438C126.327 117.522 121.046 112.064 117.249 105.062C113.451 98.0611 111.553 89.9918 111.553 80.8544C111.553 71.3611 113.392 63.0544 117.071 55.9344C120.868 48.8144 126.149 43.2371 132.913 39.2024C139.795 35.1678 147.746 33.1504 156.765 33.1504C165.546 33.1504 173.2 35.1084 179.727 39.0244C186.253 42.9404 191.297 48.2211 194.857 54.8664C198.417 61.3931 200.197 68.7504 200.197 76.9384C200.197 78.1251 200.197 79.4304 200.197 80.8544C200.197 82.2784 200.078 83.7618 199.841 85.3044H126.861V71.5984H178.659C178.421 65.0718 176.226 59.9691 172.073 56.2904C167.919 52.4931 162.757 50.5944 156.587 50.5944C152.196 50.5944 148.161 51.6031 144.483 53.6204C140.804 55.6378 137.897 58.6638 135.761 62.6984C133.625 66.6144 132.557 71.5984 132.557 77.6504V82.8124C132.557 88.3898 133.565 93.1958 135.583 97.2304C137.719 101.265 140.567 104.35 144.127 106.486C147.805 108.504 151.899 109.512 156.409 109.512C161.393 109.512 165.487 108.444 168.691 106.308C172.013 104.172 174.446 101.324 175.989 97.7644H197.705C196.043 103.342 193.314 108.385 189.517 112.894C185.719 117.285 181.032 120.786 175.455 123.396C169.877 125.888 163.588 127.134 156.587 127.134Z" fill="white"/>
<path d="M195.136 124.998L226.82 80.1424L195.136 35.2864H218.098L240.526 67.8604L262.954 35.2864H285.916L254.232 80.1424L285.916 124.998H262.954L240.526 92.4244L218.098 124.998H195.136Z" fill="white"/>
<path d="M329.496 124.998C323.444 124.998 318.163 124.049 313.654 122.15C309.263 120.252 305.822 117.107 303.33 112.716C300.838 108.326 299.592 102.392 299.592 94.9164V53.2644H284.284V35.2864H299.592L302.084 11.6124H320.952V35.2864H345.338V53.2644H320.952V94.9164C320.952 99.4258 321.901 102.57 323.8 104.35C325.817 106.012 329.14 106.842 333.768 106.842H344.804V124.998H329.496Z" fill="white"/>
<path d="M384.658 127.134C377.3 127.134 371.189 125.888 366.324 123.396C361.458 120.904 357.839 117.582 355.466 113.428C353.092 109.275 351.906 104.766 351.906 99.9004C351.906 94.2044 353.33 89.2798 356.178 85.1264C359.144 80.9731 363.476 77.7691 369.172 75.5144C374.868 73.1411 381.869 71.9544 390.176 71.9544H412.782C412.782 67.2078 412.129 63.2918 410.824 60.2064C409.518 57.0024 407.501 54.6291 404.772 53.0864C402.042 51.5438 398.542 50.7724 394.27 50.7724C389.404 50.7724 385.251 51.8998 381.81 54.1544C378.368 56.2904 376.232 59.6131 375.402 64.1224H354.398C355.11 57.7144 357.246 52.2558 360.806 47.7464C364.366 43.1184 369.053 39.5584 374.868 37.0664C380.801 34.4558 387.268 33.1504 394.27 33.1504C402.695 33.1504 409.874 34.6338 415.808 37.6004C421.741 40.4484 426.25 44.6018 429.336 50.0604C432.54 55.4004 434.142 61.8678 434.142 69.4624V124.998H415.986L413.85 110.58C412.663 112.954 411.12 115.149 409.222 117.166C407.442 119.184 405.365 120.964 402.992 122.506C400.618 123.93 397.889 125.058 394.804 125.888C391.837 126.719 388.455 127.134 384.658 127.134ZM389.464 110.224C392.905 110.224 395.931 109.631 398.542 108.444C401.271 107.139 403.585 105.359 405.484 103.104C407.501 100.731 409.044 98.1204 410.112 95.2724C411.18 92.4244 411.892 89.3984 412.248 86.1944V85.8384H392.49C388.336 85.8384 384.895 86.3724 382.166 87.4404C379.436 88.3898 377.478 89.8138 376.292 91.7124C375.105 93.6111 374.512 95.8064 374.512 98.2984C374.512 100.79 375.105 102.926 376.292 104.706C377.478 106.486 379.199 107.851 381.454 108.8C383.708 109.75 386.378 110.224 389.464 110.224Z" fill="white"/>
<path d="M494.167 127.134C485.148 127.134 476.96 125.354 469.602 121.794C462.364 118.234 456.549 112.776 452.158 105.418C447.886 98.0611 445.75 88.8051 445.75 77.6504V0.398438H467.111V77.8284C467.111 84.5924 468.238 90.1698 470.492 94.5604C472.747 98.9511 475.892 102.274 479.926 104.528C484.08 106.664 488.945 107.732 494.522 107.732C500.218 107.732 505.084 106.664 509.118 104.528C513.272 102.274 516.416 98.9511 518.552 94.5604C520.807 90.1698 521.935 84.5924 521.935 77.8284V0.398438H543.294V77.6504C543.294 88.8051 541.099 98.0611 536.708 105.418C532.318 112.776 526.385 118.234 518.909 121.794C511.433 125.354 503.185 127.134 494.167 127.134Z" fill="white"/>
<path d="M556.606 124.998V0.398438H577.966V124.998H556.606Z" fill="white"/>
</svg>
